<svg xmlns="http://www.w3.org/2000/svg" viewBox="0 0 480.402 480.402"><path d="M373.747 287.335l-13.326-3.974c-9.1-28.83-6.16-69.54-5.066-81.253 1.972-3.323 3.69-6.905 5.037-10.752 5.912-16.923 3.863-33.578-4.08-43.97 1.547-8.422 2.767-20.605 2.767-28.535C359.077 53.204 305.84 0 240.217 0c-65.653 0-118.89 53.204-118.89 118.85 0 7.922 1.204 20.097 2.767 28.52-7.96 10.383-10.01 27.048-4.112 43.977 1.346 3.863 3.082 7.452 5.052 10.783 1.11 11.753 4.035 52.424-5.067 81.24l-13.31 3.965C89.985 292.308 80.01 309.36 83.87 326.33l8.117 35.737c15.72 69.21 77.244 118.335 148.215 118.335 70.973 0 132.497-49.124 148.215-118.335l8.116-35.736c3.862-16.97-6.115-34.022-22.786-38.995zM141.55 153.407c.45-.164 82.846-7.957 141.347-78.56-13.423-4.42-27.925-7.01-42.696-7.01-22.243 0-43.873 5.872-62.128 15.024-5.4 2.997-10.07 5.715-13.683 7.877-4.037 2.654-7.826 5.463-11.316 8.397-3.185 2.677-7.917 2.642-11.05-.09l-.186-.163c-2.905-2.536-3.585-6.693-1.638-9.977 9.723-16.39 41.993-62.01 100-62.01s90.277 45.62 100 62.01c1.95 3.29 1.274 7.436-1.638 9.978l-.186.163c-3.127 2.728-7.873 2.763-11.05.09-3.435-2.887-7.158-5.655-11.124-8.272-3.706-2.23-8.502-5.013-14.067-8.1-4.857-2.425-9.955-4.613-15.235-6.525 6.9 14.57 35.805 70.988 51.94 77.17 7.44 2.852 12.01 16.69 6.44 32.663-5.004 14.333-15.2 22.06-22.44 22.06-2.925.39-6.194 1.845-7.476 4.8-14.515 33.273-41.884 68.82-75.148 68.82-33.296 0-60.68-35.547-75.193-68.82-1.268-2.917-4.473-4.8-7.663-4.8-7.07 0-17.25-7.727-22.256-22.06-5.566-15.974-1.08-30.035 6.445-32.66zM380.907 322.78l-8.116 35.737c-2.205 9.712-5.49 18.9-9.54 27.603-13.262-8.852-28.948-14.317-46.104-14.317-32.732 0-60.822 18.83-74.835 46.073-12.98-29.94-42.742-50.914-77.462-50.914-18.437 0-35.172 6.28-49.013 16.335-3.44-7.866-6.255-16.124-8.227-24.78l-8.132-35.745c-1.97-8.71 3.19-17.53 11.76-20.09l81.467-24.287c13.888 11.605 29.824 19.37 47.512 19.37 17.673 0 33.61-7.764 47.48-19.37l81.466 24.288c8.57 2.558 13.733 11.38 11.745 20.097z"/></svg>