<svg xmlns="http://www.w3.org/2000/svg" width="31.709" height="31.709" viewBox="0 0 31.709 31.709"><path d="M10.595 25.72h-5.9c-1.126 0-2.06-.887-2.06-2.014V5.42c0-1.127.934-2.006 2.06-2.006h14.278c1.127 0 2.047.88 2.047 2.006v15.323l2.637-3.135V3.462c0-1.482-1.172-2.684-2.652-2.684H2.56C1.135.778 0 1.932 0 3.354v22.382c0 1.482 1.185 2.688 2.67 2.688h10.357l-1.224-1.063c-.536-.464-.94-1.033-1.208-1.64z"/><path d="M17.875 6.794H6.035c-.73 0-1.315.59-1.315 1.318 0 .726.587 1.317 1.314 1.317h11.84c.728 0 1.312-.592 1.312-1.318.002-.726-.584-1.318-1.31-1.318zM17.875 11.187H6.035c-.73 0-1.315.59-1.315 1.318 0 .724.587 1.318 1.314 1.318h11.84c.728 0 1.312-.594 1.312-1.318.002-.728-.584-1.318-1.31-1.318zM17.875 15.58H6.035c-.73 0-1.315.56-1.315 1.287 0 .725.587 1.282 1.314 1.282h11.84c.728 0 1.312-.56 1.312-1.283.002-.728-.584-1.286-1.31-1.286zM4.72 21.056c0 .727.586 1.283 1.313 1.283h4.418c.186-.474.47-1.023.858-1.48.408-.473.89-.82 1.412-1.092H6.034c-.728.003-1.315.563-1.315 1.288zM17.875 19.77h-.988c.324.138.633.367.916.612l1.312 1.123c.05-.135.076-.28.076-.437-.002-.722-.588-1.297-1.315-1.297z"/><path d="M30.898 16.25c-.965-.83-2.42-.71-3.246.26l-7.564 8.866-3.78-3.248c-.97-.826-2.422-.717-3.25.248-.828.967-.716 2.418.25 3.246l5.532 4.752c.422.358.95.557 1.5.557.062 0 .12 0 .182-.007.607-.047 1.176-.336 1.572-.8l9.066-10.628c.822-.967.71-2.418-.262-3.246z"/></svg>